<svg width="25" height="24" viewBox="0 0 25 24" fill="none" xmlns="http://www.w3.org/2000/svg">
<g clip-path="url(#clip0_111_406)">
<path d="M17.4838 9.81401L17.8442 6.36835H18.4749C18.9522 6.36835 19.3391 6.06007 19.3391 5.67987V4.42343C19.3391 3.23852 18.129 2.27448 16.6417 2.27448H13.6356V1.95643C13.6356 0.877576 12.5339 0 11.1798 0H8.65922C7.3051 0 6.20355 0.877576 6.20355 1.95636V2.27441H3.19743C1.71009 2.27441 0.5 3.23845 0.5 4.42337V5.6798C0.5 6.06 0.886965 6.36828 1.3642 6.36828H1.99494L3.16919 17.596C3.31019 18.944 4.75078 20 6.44876 20H13.39C15.0678 20 16.4934 18.9688 16.6632 17.6437C19.0015 17.2595 20.765 15.6066 20.765 13.6316C20.7651 11.8956 19.4018 10.4094 17.4838 9.81401ZM7.93195 1.95636C7.93195 1.6369 8.25823 1.37697 8.65922 1.37697H11.1798C11.5809 1.37697 11.9072 1.6369 11.9072 1.95636V2.27441H7.93195V1.95636ZM2.22824 4.99145V4.42343C2.22824 3.99771 2.66296 3.65138 3.19734 3.65138H16.6416C17.176 3.65138 17.6107 3.99771 17.6107 4.42343V4.99145H2.22824ZM13.3901 18.623H6.44884C5.64262 18.623 4.95863 18.1217 4.89169 17.4816L3.72919 6.36835H16.1098L15.7782 9.53845C15.7265 9.53724 15.6751 9.53529 15.6231 9.53529C12.7878 9.53529 10.4812 11.3729 10.4812 13.6316C10.4812 15.6954 12.4072 17.4067 14.9022 17.6869C14.7272 18.2256 14.1078 18.623 13.3901 18.623ZM15.6231 16.3511C13.7408 16.3511 12.2095 15.1312 12.2095 13.6316C12.2095 12.1321 13.7408 10.9122 15.6231 10.9122C17.5053 10.9122 19.0366 12.1321 19.0366 13.6316C19.0366 15.1312 17.5053 16.3511 15.6231 16.3511Z" fill="#F56497"/>
<path d="M16.8454 13.6318L17.6602 12.9827C17.9976 12.7138 17.9976 12.2778 17.6601 12.009C17.3225 11.7402 16.7755 11.7402 16.4379 12.009L15.623 12.6581L14.8082 12.009C14.4706 11.7402 13.9236 11.7402 13.586 12.009C13.2485 12.2779 13.2485 12.7138 13.586 12.9827L14.4009 13.6318L13.586 14.281C13.2485 14.5499 13.2485 14.9858 13.586 15.2546C13.7548 15.3891 13.9759 15.4563 14.1972 15.4563C14.4184 15.4563 14.6395 15.3891 14.8083 15.2546L15.6231 14.6055L16.438 15.2546C16.6068 15.3891 16.8279 15.4563 17.0491 15.4563C17.2703 15.4563 17.4914 15.3891 17.6602 15.2546C17.9977 14.9858 17.9977 14.5499 17.6602 14.281L16.8454 13.6318Z" fill="#F56497"/>
</g>
<defs>
<clipPath id="clip0_111_406">
<rect width="24" height="24" fill="white" transform="translate(0.5)"/>
</clipPath>
</defs>
</svg>
