<svg width="18" height="15" viewBox="0 0 18 15" fill="none" xmlns="http://www.w3.org/2000/svg">
<path d="M13.9124 7.36051L14.1708 4.77626H14.623C14.9652 4.77626 15.2427 4.54505 15.2427 4.2599V3.31758C15.2427 2.42889 14.375 1.70586 13.3086 1.70586H11.1532V1.46732C11.1532 0.658182 10.3633 0 9.39244 0H7.58517C6.61426 0 5.82444 0.658182 5.82444 1.46727V1.70581H3.66905C2.60262 1.70581 1.73499 2.42884 1.73499 3.31752V4.25985C1.73499 4.545 2.01244 4.77621 2.35462 4.77621H2.80686L3.6488 13.197C3.74989 14.208 4.7828 15 6.00026 15H10.9772C12.1801 15 13.2023 14.2266 13.324 13.2328C15.0006 12.9446 16.265 11.7049 16.265 10.2237C16.2651 8.92167 15.2876 7.80702 13.9124 7.36051ZM7.06371 1.46727C7.06371 1.22768 7.29765 1.03273 7.58517 1.03273H9.39244C9.68002 1.03273 9.91396 1.22768 9.91396 1.46727V1.70581H7.06371V1.46727ZM2.97414 3.74359V3.31758C2.97414 2.99828 3.28583 2.73854 3.66899 2.73854H13.3086C13.6917 2.73854 14.0034 2.99828 14.0034 3.31758V3.74359H2.97414ZM10.9772 13.9673H6.00032C5.42226 13.9673 4.93183 13.5913 4.88383 13.1112L4.05032 4.77626H12.9272L12.6895 7.15384C12.6524 7.15293 12.6155 7.15146 12.5783 7.15146C10.5453 7.15146 8.89153 8.5297 8.89153 10.2237C8.89153 11.7716 10.2724 13.055 12.0614 13.2652C11.9359 13.6692 11.4918 13.9673 10.9772 13.9673ZM12.5783 12.2633C11.2287 12.2633 10.1307 11.3484 10.1307 10.2237C10.1307 9.09909 11.2287 8.18414 12.5783 8.18414C13.9278 8.18414 15.0258 9.09909 15.0258 10.2237C15.0258 11.3484 13.9278 12.2633 12.5783 12.2633Z" fill="#F56497"/>
<path d="M13.4547 10.2238L14.0389 9.73693C14.2808 9.53527 14.2808 9.2083 14.0388 9.00668C13.7967 8.80506 13.4046 8.80506 13.1625 9.00668L12.5783 9.49355L11.994 9.00668C11.752 8.80506 11.3598 8.80506 11.1177 9.00668C10.8757 9.20835 10.8757 9.53527 11.1177 9.73693L11.702 10.2238L11.1177 10.7107C10.8757 10.9123 10.8757 11.2393 11.1177 11.4409C11.2387 11.5417 11.3973 11.5921 11.5559 11.5921C11.7145 11.5921 11.8731 11.5417 11.9941 11.4409L12.5783 10.9541L13.1626 11.4409C13.2836 11.5417 13.4421 11.5921 13.6007 11.5921C13.7594 11.5921 13.9179 11.5417 14.0389 11.4409C14.2809 11.2393 14.2809 10.9123 14.0389 10.7107L13.4547 10.2238Z" fill="#F56497"/>
</svg>
